<?xml version="1.0"?>
<svg width="225" height="225" xmlns="http://www.w3.org/2000/svg" xmlns:svg="http://www.w3.org/2000/svg" preserveAspectRatio="xMidYMid meet" version="1.0">
 <g class="layer">
  <title>Layer 1</title>
  <g fill="#000000" id="svg_1" transform="matrix(0.1 0 0 -0.1 0 0)">
   <path d="m439,-737c-91,-46 -209,-160 -256,-248c-47,-90 -73,-194 -73,-297l0,-88l133,0l132,0l0,88c0,100 25,165 89,239c34,38 122,91 184,108l22,6l0,-220l0,-221l125,0l125,0l0,335l0,335l-204,0l-203,0l-74,-37z" fill="#9ca3af" id="svg_2"/>
   <path d="m960,-1035l0,-335l120,0l120,0l0,200c0,166 2,200 14,200c24,0 120,-95 148,-147c30,-54 47,-146 40,-210l-4,-43l131,0l131,0l6,26c9,37 -3,171 -22,235c-9,30 -29,80 -45,111c-16,32 -29,60 -29,63c0,3 23,-4 51,-15c101,-38 166,-99 212,-200c15,-34 21,-67 21,-132l1,-88l133,0l132,0l-4,108c-7,192 -88,353 -235,466c-108,83 -147,96 -293,96l-128,0l0,-55c0,-30 -2,-55 -5,-55c-3,0 -27,16 -53,34c-93,67 -127,76 -293,76l-149,0l0,-335z" fill="#9ca3af" id="svg_3"/>
   <path d="m120,-1418c0,-4 9,-36 21,-70l21,-62l954,0l953,0l21,66c11,36 20,68 20,70c0,2 -448,4 -995,4c-547,0 -995,-4 -995,-8zm688,-18c12,-4 22,-13 22,-22c0,-12 -3,-13 -12,-4c-15,15 -64,16 -73,2c-4,-6 8,-10 29,-10c39,0 68,-23 59,-46c-8,-20 -94,-16 -101,6c-4,13 -3,13 11,2c19,-16 69,-12 74,5c3,8 -11,13 -39,15c-35,2 -44,7 -46,25c-4,27 30,39 76,27zm478,-8c11,-8 15,-18 10,-23c-5,-4 -11,-2 -13,5c-5,14 -73,17 -73,2c0,-5 10,-10 23,-10c46,0 68,-12 65,-34c-2,-17 -11,-22 -47,-24c-43,-3 -73,10 -56,25c4,5 10,2 12,-4c7,-19 73,-17 73,2c0,11 -11,15 -40,15c-47,0 -65,24 -35,46c24,18 56,18 81,0zm-978,-37c25,-44 24,-56 -5,-44c-10,4 -27,8 -38,8c-11,0 -28,-4 -38,-8c-28,-12 -30,0 -7,44c28,55 57,55 88,0zm205,15l13,-25l14,25c8,17 22,26 37,26c21,0 23,-5 23,-45c0,-33 -4,-45 -15,-45c-10,0 -15,10 -15,28l-1,27l-15,-27c-8,-16 -20,-28 -27,-28c-7,0 -20,12 -29,28l-17,27l-1,-27c0,-18 -5,-28 -15,-28c-11,0 -15,12 -15,45c0,41 2,45 25,45c16,0 29,-9 38,-26zm479,9c17,-15 19,-15 36,0c32,29 48,19 19,-11c-15,-15 -27,-36 -27,-45c0,-9 -4,-17 -10,-17c-5,0 -10,10 -10,22c0,12 -10,32 -22,45c-25,26 -14,31 14,6zm516,10c-25,-4 -28,-8 -28,-44c0,-21 -4,-39 -10,-39c-5,0 -10,18 -10,39c0,33 -4,40 -22,44c-13,2 4,4 37,4c33,0 48,-2 33,-4zm195,0c-51,-5 -58,-23 -9,-23c19,0 38,-4 41,-10c4,-6 -10,-10 -34,-10c-58,0 -57,-27 2,-33l42,-4l-47,-1l-48,-2l0,45l0,45l48,-2l47,-1l-42,-4zm210,-29l25,-35l22,35c31,51 50,47 50,-9c0,-25 -4,-45 -10,-45c-5,0 -10,15 -10,32l0,33l-22,-32c-13,-18 -26,-33 -30,-33c-4,0 -19,17 -33,37l-25,38l0,-38c0,-20 -4,-37 -10,-37c-5,0 -10,20 -10,45c0,56 19,60 53,9z" fill="#9ca3af" id="svg_4"/>
   <path d="m255,-1480c-3,-5 -1,-10 4,-10c6,0 11,5 11,10c0,6 -2,10 -4,10c-3,0 -8,-4 -11,-10z" fill="#9ca3af" id="svg_5"/>
  </g>
 </g>
</svg>