<?xml version="1.0" encoding="UTF-8"?>
<!DOCTYPE svg PUBLIC "-//W3C//DTD SVG 1.1//EN" "http://www.w3.org/Graphics/SVG/1.1/DTD/svg11.dtd">
<svg xmlns="http://www.w3.org/2000/svg" version="1.1" width="281px" height="281px" style="shape-rendering:geometricPrecision; text-rendering:geometricPrecision; image-rendering:optimizeQuality; fill-rule:evenodd; clip-rule:evenodd" xmlns:xlink="http://www.w3.org/1999/xlink">
<g><path style="opacity:1" fill="#9ba3ae" d="M 130.5,24.5 C 137.532,24.1697 144.532,24.503 151.5,25.5C 146.039,27.7859 140.372,29.6192 134.5,31C 131.528,32.1414 129.861,34.3081 129.5,37.5C 134.132,47.0636 131.465,53.5636 121.5,57C 112.927,57.9335 108.26,62.7669 107.5,71.5C 118.859,72.62 130.193,73.9534 141.5,75.5C 141.87,85.8894 141.37,96.2227 140,106.5C 138.933,107.191 137.766,107.691 136.5,108C 139.711,109.153 143.044,109.82 146.5,110C 146.167,110.333 145.833,110.667 145.5,111C 148.077,112.25 150.743,112.584 153.5,112C 151.668,111.252 150.001,110.252 148.5,109C 149.167,108.833 149.833,108.667 150.5,108.5C 161.307,114.273 169.807,111.939 176,101.5C 178.46,95.9934 180.46,90.3267 182,84.5C 182.499,89.1548 182.666,93.8215 182.5,98.5C 183.822,98.67 184.989,98.3366 186,97.5C 186.96,93.7015 188.294,90.0349 190,86.5C 191.459,79.9134 190.292,73.9134 186.5,68.5C 189.497,67.5237 192.497,67.6903 195.5,69C 202.95,71.8914 210.283,75.0581 217.5,78.5C 221.242,98.9978 222.409,119.664 221,140.5C 220.298,149.047 218.632,157.38 216,165.5C 212.135,166.456 208.468,165.79 205,163.5C 206.641,148.414 207.808,133.247 208.5,118C 208.185,107.753 207.185,97.5861 205.5,87.5C 201.776,85.3003 197.943,84.3003 194,84.5C 191.34,88.8139 189.673,93.4805 189,98.5C 186.613,100.17 184.279,101.837 182,103.5C 181.197,110.536 180.197,117.536 179,124.5C 174.778,127.703 171.778,131.703 170,136.5C 162.086,144.418 153.586,151.585 144.5,158C 142.5,158.667 140.5,158.667 138.5,158C 132.167,153 125.833,148 119.5,143C 114.935,136.045 109.768,129.545 104,123.5C 102.796,117.247 102.129,110.914 102,104.5C 101,102.167 99.3333,100.5 97,99.5C 93.839,91.0909 92.839,82.4243 94,73.5C 95.4007,71.8078 97.2341,71.1412 99.5,71.5C 100.524,59.4027 104.024,48.0694 110,37.5C 115.708,31.2382 122.542,26.9049 130.5,24.5 Z M 112.5,76.5 C 113.873,76.3433 115.207,76.51 116.5,77C 115.167,78.3333 113.833,79.6667 112.5,81C 118.859,81.1694 125.193,81.6694 131.5,82.5C 130.318,88.2436 128.818,93.9103 127,99.5C 124.624,103.552 121.457,104.385 117.5,102C 106.505,95.185 104.839,86.685 112.5,76.5 Z M 108.5,121.5 C 106.983,119.538 106.316,117.205 106.5,114.5C 106.412,112.288 106.912,110.288 108,108.5C 108.499,112.821 108.666,117.154 108.5,121.5 Z M 175.5,108.5 C 176.734,110.201 177.401,112.201 177.5,114.5C 176.98,117.912 176.147,121.245 175,124.5C 175.096,119.191 175.262,113.858 175.5,108.5 Z M 134.5,111.5 C 135.873,111.343 137.207,111.51 138.5,112C 135.281,113.955 131.947,115.288 128.5,116C 130.684,114.637 132.684,113.137 134.5,111.5 Z M 113.5,113.5 C 114.422,118.724 114.922,124.057 115,129.5C 113.037,127.239 111.87,124.572 111.5,121.5C 112.295,118.856 112.962,116.189 113.5,113.5 Z M 144.5,113.5 C 150.346,115.233 156.346,115.9 162.5,115.5C 156.927,118.037 151.26,117.871 145.5,115C 144.944,114.617 144.611,114.117 144.5,113.5 Z M 138.5,115.5 C 137.738,117.262 136.404,118.262 134.5,118.5C 135.262,116.738 136.596,115.738 138.5,115.5 Z M 134.5,118.5 C 130.693,121.37 126.359,122.536 121.5,122C 125.784,120.643 130.118,119.477 134.5,118.5 Z M 143.5,118.5 C 147.342,118.83 151.009,119.663 154.5,121C 153.833,121.667 153.167,122.333 152.5,123C 146.054,126.003 139.554,126.503 133,124.5C 132.312,123.668 132.479,123.002 133.5,122.5C 136.722,120.545 140.056,119.212 143.5,118.5 Z M 169.5,118.5 C 172.047,121.771 171.88,125.105 169,128.5C 168.828,125.174 168.995,121.841 169.5,118.5 Z M 119.5,126.5 C 120.117,126.611 120.617,126.944 121,127.5C 121.992,135.635 121.159,136.135 118.5,129C 118.743,128.098 119.077,127.265 119.5,126.5 Z M 162.5,126.5 C 164.958,128.493 165.125,130.826 163,133.5C 162.503,131.19 162.337,128.857 162.5,126.5 Z M 126.5,129.5 C 128.242,134.59 128.742,139.923 128,145.5C 125.267,140.4 124.767,135.067 126.5,129.5 Z M 155.5,129.5 C 157.533,130.898 158.533,132.898 158.5,135.5C 158.132,138.638 157.299,141.638 156,144.5C 155.501,139.511 155.334,134.511 155.5,129.5 Z M 132.5,131.5 C 134.062,136.981 134.895,142.647 135,148.5C 131.421,143.279 130.587,137.612 132.5,131.5 Z M 150.5,131.5 C 151.648,135.981 151.815,140.648 151,145.5C 150.085,146.328 149.419,147.328 149,148.5C 149.02,142.814 149.52,137.147 150.5,131.5 Z M 140.5,132.5 C 141.814,134.915 142.481,137.748 142.5,141C 142.28,151.986 141.28,151.819 139.5,140.5C 139.703,137.803 140.036,135.136 140.5,132.5 Z"/></g>
<g><path style="opacity:1" fill="#9ba3ae" d="M 166.5,33.5 C 172.884,37.5654 177.384,43.2321 180,50.5C 182.369,58.0727 183.202,65.7394 182.5,73.5C 181.308,65.6808 179.475,58.0142 177,50.5C 173.979,44.4423 170.479,38.7757 166.5,33.5 Z"/></g>
<g><path style="opacity:1" fill="#9ba3ae" d="M 90.5,67.5 C 91.3764,67.3691 92.0431,67.7025 92.5,68.5C 91.0182,72.7392 89.8516,77.0725 89,81.5C 86.2037,83.8857 83.037,85.7191 79.5,87C 77.9963,88.4907 77.1629,90.324 77,92.5C 74.4454,115.139 75.2788,137.639 79.5,160C 78.1916,164.637 75.025,166.804 70,166.5C 68.7387,166.241 67.7387,165.574 67,164.5C 60.9475,137.638 60.2808,110.638 65,83.5C 65.5163,80.9664 66.683,78.7998 68.5,77C 75.8108,73.517 83.1441,70.3503 90.5,67.5 Z"/></g>
<g><path style="opacity:1" fill="#9ba3ae" d="M 167.5,67.5 C 168.978,67.238 170.311,67.5713 171.5,68.5C 171.291,69.086 170.957,69.586 170.5,70C 165.125,71.5676 160.125,73.9009 155.5,77C 160.117,76.5242 164.783,76.5242 169.5,77C 171.957,78.5123 171.957,79.8456 169.5,81C 164.136,81.1705 158.802,81.6705 153.5,82.5C 153.081,83.6721 152.415,84.6721 151.5,85.5C 150.016,81.6008 149.516,77.6008 150,73.5C 155.825,71.1705 161.658,69.1705 167.5,67.5 Z"/></g>
<g><path style="opacity:1" fill="#9ba3ae" d="M 110.5,142.5 C 123.021,151.174 134.854,160.841 146,171.5C 147.933,200.848 147.933,230.182 146,259.5C 143.847,261.444 141.347,261.944 138.5,261C 137.809,259.933 137.309,258.766 137,257.5C 136.667,230.167 136.333,202.833 136,175.5C 135.882,172.629 135.216,169.962 134,167.5C 132.826,171.046 132.16,174.713 132,178.5C 131.683,203.84 131.183,229.174 130.5,254.5C 99.5931,234.921 78.9265,207.421 68.5,172C 82.2521,167.208 95.0854,160.708 107,152.5C 108.46,149.252 109.626,145.919 110.5,142.5 Z"/></g>
<g><path style="opacity:1" fill="#9ba3ae" d="M 171.5,142.5 C 172.376,142.369 173.043,142.702 173.5,143.5C 174.847,147.735 176.847,151.568 179.5,155C 190.102,161.134 201.102,166.468 212.5,171C 213.602,173.401 213.769,175.901 213,178.5C 201.919,210.403 182.419,235.736 154.5,254.5C 153.682,251.893 153.182,249.226 153,246.5C 152.86,221.481 152.193,196.481 151,171.5C 149.767,168.703 148.267,166.037 146.5,163.5C 154.679,156.254 163.013,149.254 171.5,142.5 Z M 173.5,182.5 C 181.333,181.905 185.999,185.405 187.5,193C 185.336,200.495 181.503,206.995 176,212.5C 168.655,205.523 165.655,197.19 167,187.5C 168.965,185.45 171.132,183.783 173.5,182.5 Z"/></g>
<g><path style="opacity:1" fill="#9ba3ae" d="M 173.5,186.5 C 179.641,185.816 182.808,188.483 183,194.5C 181.287,199.038 178.12,200.538 173.5,199C 167.674,195.147 167.674,190.981 173.5,186.5 Z"/></g>
</svg>
